# xmcd
#
# Track frame offsets: 
#        150
#        24507
#        46552
#        75380
#        91799
#        115924
#        134017
#        153888
#        172029
#        191645
#
# Disc length: 2930 seconds
#
# Revision: 0
# Processed by: cddbd v1.5.2PL0 Copyright (c) Steve Scherf et al.
# Submitted via: ExactAudioCopy v1.0b4
#
DISCID=710b700a
DTITLE=The Marcus King Band - Carolina Confessions
DYEAR=2018
DGENRE=Blues
TTITLE0=Confessions
TTITLE1=Where I'm Headed
TTITLE2=Homesick
TTITLE3=8 A.M.
TTITLE4=How Long
TTITLE5=Remember
TTITLE6=Side Door
TTITLE7=Autumn Rains
TTITLE8=Welcome 'Round Here
TTITLE9=Goodbye Carolina
EXTD=
EXTT0=
EXTT1=
EXTT2=
EXTT3=
EXTT4=
EXTT5=
EXTT6=
EXTT7=
EXTT8=
EXTT9=
PLAYORDER=
